<?xml version="1.0" standalone="no"?>
<!DOCTYPE svg PUBLIC "-//W3C//DTD SVG 20010904//EN"
 "http://www.w3.org/TR/2001/REC-SVG-20010904/DTD/svg10.dtd">
<svg version="1.0" xmlns="http://www.w3.org/2000/svg"
 width="500.000000pt" height="500.000000pt" viewBox="0 0 500.000000 500.000000"
 preserveAspectRatio="xMidYMid meet">

<g transform="translate(0.000000,500.000000) scale(0.100000,-0.100000)"
fill="#000000" stroke="none">
<path d="M1586 4088 c-59 -189 -242 -773 -406 -1298 -164 -525 -315 -1002
-335 -1060 -77 -223 -131 -300 -234 -337 -49 -17 -51 -19 -51 -55 l0 -38 315
0 315 0 0 40 c0 36 -3 40 -25 40 -54 0 -128 23 -158 50 -26 23 -31 35 -35 86
-4 59 4 90 109 447 l20 67 384 0 384 0 20 -67 c74 -252 94 -327 104 -396 10
-72 10 -82 -8 -115 -25 -46 -57 -62 -144 -69 l-70 -6 1 -38 0 -39 849 0 849 0
0 39 0 38 -73 12 c-77 13 -133 40 -165 81 -47 61 -46 61 -50 698 l-3 602 33 0
c60 0 214 -37 274 -66 77 -37 182 -141 217 -215 41 -88 68 -196 74 -302 6
-104 9 -108 66 -105 16 1 17 44 17 745 l0 743 -40 0 -40 0 0 -63 c0 -129 -38
-271 -99 -364 -44 -68 -114 -123 -202 -159 -65 -27 -198 -54 -261 -54 l-38 0
0 637 0 636 218 -6 c367 -10 501 -45 632 -163 90 -82 154 -220 186 -406 l17
-98 39 0 38 0 0 415 0 415 -1011 0 -1010 0 3 -37 c3 -37 4 -38 56 -45 98 -14
176 -74 204 -155 10 -30 13 -284 15 -1188 2 -635 -1 -1143 -6 -1135 -4 8 -142
463 -306 1010 -163 547 -339 1135 -390 1305 l-92 310 -40 3 -39 3 -108 -343z
m74 -1358 c84 -283 155 -521 158 -527 3 -10 -66 -13 -327 -13 -234 0 -331 3
-331 11 0 12 319 1039 327 1052 3 5 9 5 13 0 4 -4 76 -240 160 -523z"/>
</g>
</svg>
